<svg xmlns="http://www.w3.org/2000/svg" width="300" height="300" viewBox="0 0 300 300">
  <metadata><?xpacket begin="﻿" id="W5M0MpCehiHzreSzNTczkc9d"?>
<x:xmpmeta xmlns:x="adobe:ns:meta/" x:xmptk="Adobe XMP Core 5.6-c142 79.160924, 2017/07/13-01:06:39        ">
   <rdf:RDF xmlns:rdf="http://www.w3.org/1999/02/22-rdf-syntax-ns#">
      <rdf:Description rdf:about=""/>
   </rdf:RDF>
</x:xmpmeta>
                                                                                                    
                                                                                                    
                                                                                                    
                                                                                                    
                                                                                                    
                                                                                                    
                                                                                                    
                                                                                                    
                                                                                                    
                                                                                                    
                                                                                                    
                                                                                                    
                                                                                                    
                                                                                                    
                                                                                                    
                                                                                                    
                                                                                                    
                                                                                                    
                                                                                                    
                                                                                                    
                           
<?xpacket end="w"?></metadata>
<defs>
    <style>
      .cls-1 {
        fill: #fff;
        fill-rule: evenodd;
      }
    </style>
  </defs>
  <path class="cls-1" d="M137,174c3.908,25.121-39.515,62.939-50,70,10.271,3.852,31-6,31-6s-20.737,16.371-37,26c4.708,4.494,11.729,7.288,22,9,17.332-6.419,27-17,27-17s-4.864,12.725-10,20c2.354,1.926,17.371.21,27-3,7.917-7.275,16-20,16-20s0.642,12.362,0,16c3,1.926,17.3-5.308,20-10,0.6-4.393-1-13-1-13s9.309-5.4,15-7c-2-10.283-5-13-5-13s7.509-6.5,13-9c-3.794-7.987-11-14-11-14s10.695-.861,14-7c-10.371-1.626-57.132-30.931-49-61,8.226,4.218,9.234,5.046,16,10,3.987-3.625,7-14,7-14s13.067,6.463,15,9c4.954-5.316,7-16,7-16s12.255,3.584,16,6c5.679-3.5,9-16,9-16a101.262,101.262,0,0,0,14,5c13.576-5.836,18-25,18-25s-14.2-3.5-18-6c4.619-2.921,13.435-3.713,21-8a69.99,69.99,0,0,0,1-26c-5.672,2.254-11.871,4.5-16,6a249.429,249.429,0,0,0,16.1-19.627A71.364,71.364,0,0,0,262,23C204.054,72.014,162,93,162,93s3.888-12.971,4-19c3.684-3.8,17-8,17-8s-10.379-17.126-47-14c-13.4-8.709-11.073-7.189-19-14-0.893,14.068,18.592,32.835,11,44S75.593,142.627,137,174ZM117,86C94.814,69.28,73.92,51.135,49,23c-0.8,10.932-.965,19.016,0,24,6.916,7.258,11,11,11,11s-2.75.28-11-2a58.541,58.541,0,0,0,4,16c5.071,2.2,14,6,14,6s-7.849,4.175-11,5c1.575,4.426,2.152,8.307,6,14a86.344,86.344,0,0,0,11-2,133.35,133.35,0,0,0,1,17c4.563-2.457,14-6,14-6s1.006,16.909,10,26C97.13,120.975,101.282,104.9,117,86Z"/>
</svg>
